<svg width="25" height="40" viewBox="0 0 25 40" fill="none" xmlns="http://www.w3.org/2000/svg">
<path d="M1.90735e-06 20C-0.000509262 19.6375 0.0776844 19.2784 0.230085 18.9435C0.382488 18.6085 0.606096 18.3043 0.888058 18.0483L19.8267 0.806227C20.3955 0.289574 21.1663 -0.000400412 21.9697 4.1499e-07C22.7732 0.000401242 23.5437 0.291145 24.1118 0.808365C24.68 1.32558 24.9995 2.02698 25 2.75848C25.0005 3.48999 24.6821 4.19177 24.1147 4.70968L7.32011 20L24.1147 35.2903C24.6821 35.8082 25.0005 36.51 25 37.2415C24.9995 37.973 24.68 38.6744 24.1118 39.1916C23.5437 39.7089 22.7732 39.9996 21.9697 40C21.1663 40.0004 20.3955 39.7104 19.8267 39.1938L0.888058 21.9517C0.606096 21.6957 0.382488 21.3915 0.230085 21.0566C0.0776844 20.7216 -0.000509262 20.3625 1.90735e-06 20Z" fill="#F3F4F9"/>
</svg>
