<?xml version="1.0" encoding="UTF-8" standalone="no"?>
<!DOCTYPE svg PUBLIC "-//W3C//DTD SVG 1.1//EN" "http://www.w3.org/Graphics/SVG/1.1/DTD/svg11.dtd">
<svg xmlns="http://www.w3.org/2000/svg" version="1.1" viewBox="0.00 0.00 1105.00 564.00">
<g stroke-width="2.00" fill="none" stroke-linecap="butt">
<path stroke="#587222" vector-effect="non-scaling-stroke" d="
  M 355.02 44.01
  A 35.84 35.84 0.0 0 0 319.18 8.17
  L 318.00 8.17
  A 35.84 35.84 0.0 0 0 282.16 44.01
  L 282.16 519.45
  A 35.84 35.84 0.0 0 0 318.00 555.29
  L 319.18 555.29
  A 35.84 35.84 0.0 0 0 355.02 519.45
  L 355.02 44.01"
/>
<path stroke="#587222" vector-effect="non-scaling-stroke" d="
  M 823.35 43.79
  A 35.61 35.61 0.0 0 0 787.74 8.18
  L 786.60 8.18
  A 35.61 35.61 0.0 0 0 750.99 43.79
  L 750.99 519.65
  A 35.61 35.61 0.0 0 0 786.60 555.26
  L 787.74 555.26
  A 35.61 35.61 0.0 0 0 823.35 519.65
  L 823.35 43.79"
/>
<path stroke="#587222" vector-effect="non-scaling-stroke" d="
  M 1028.52 53.66
  C 977.97 30.76 918.81 49.25 888.05 94.99
  Q 873.11 117.21 870.43 144.67
  Q 868.46 164.83 868.31 186.00
  Q 867.55 289.99 868.10 379.50
  Q 868.14 385.27 869.39 390.97
  C 872.78 406.34 887.57 416.82 902.70 417.46
  C 917.03 418.08 930.04 410.60 936.30 397.67
  Q 938.61 392.88 939.65 386.17
  Q 940.79 378.77 940.79 372.94
  Q 940.75 321.58 940.86 273.80
  C 940.87 268.99 946.10 266.98 950.24 267.79
  Q 974.72 272.60 996.95 270.46
  Q 1037.04 266.59 1064.22 237.71
  C 1093.48 206.62 1104.78 163.95 1091.71 123.37
  C 1081.58 91.92 1058.55 67.26 1028.52 53.66"
/>
<path stroke="#587222" vector-effect="non-scaling-stroke" d="
  M 233.20 398.17
  Q 235.01 394.59 235.73 390.85
  Q 237.93 379.35 237.94 367.75
  Q 237.98 272.57 237.35 177.25
  Q 237.26 163.66 235.67 146.26
  Q 233.40 121.44 221.69 101.13
  Q 204.27 70.93 173.41 55.77
  Q 142.60 40.64 108.60 44.60
  Q 69.15 49.18 41.13 78.90
  Q 18.54 102.85 11.53 134.93
  Q 0.32 186.26 33.07 228.37
  C 52.74 253.65 79.87 269.58 112.22 271.78
  Q 133.92 273.26 156.43 268.09
  C 160.54 267.14 165.14 269.10 165.14 273.70
  Q 165.21 330.33 165.14 379.55
  Q 165.10 402.68 184.78 413.17
  Q 193.76 417.97 203.73 417.54
  Q 223.85 416.66 233.20 398.17"
/>
<path stroke="#587222" vector-effect="non-scaling-stroke" d="
  M 172.95 158.01
  A 49.91 49.91 0.0 0 0 123.04 108.10
  A 49.91 49.91 0.0 0 0 73.13 158.01
  A 49.91 49.91 0.0 0 0 123.04 207.92
  A 49.91 49.91 0.0 0 0 172.95 158.01"
/>
<path stroke="#587222" vector-effect="non-scaling-stroke" d="
  M 1032.95 158.01
  A 49.91 49.91 0.0 0 0 983.04 108.10
  A 49.91 49.91 0.0 0 0 933.13 158.01
  A 49.91 49.91 0.0 0 0 983.04 207.92
  A 49.91 49.91 0.0 0 0 1032.95 158.01"
/>
<path stroke="#587222" vector-effect="non-scaling-stroke" d="
  M 589.16 105.39
  A 35.42 35.42 0.0 0 0 553.74 69.97
  L 552.28 69.97
  A 35.42 35.42 0.0 0 0 516.86 105.39
  L 516.86 458.37
  A 35.42 35.42 0.0 0 0 552.28 493.79
  L 553.74 493.79
  A 35.42 35.42 0.0 0 0 589.16 458.37
  L 589.16 105.39"
/>
<path stroke="#587222" vector-effect="non-scaling-stroke" d="
  M 471.8251 181.5566
  A 35.39 35.39 0.0 0 0 436.3733 146.2285
  L 434.3734 146.2320
  A 35.39 35.39 0.0 0 0 399.0452 181.6837
  L 399.3949 382.0834
  A 35.39 35.39 0.0 0 0 434.8467 417.4115
  L 436.8466 417.4080
  A 35.39 35.39 0.0 0 0 472.1748 381.9563
  L 471.8251 181.5566"
/>
<path stroke="#587222" vector-effect="non-scaling-stroke" d="
  M 706.3350 181.6035
  A 35.31 35.31 0.0 0 0 671.0866 146.2319
  L 669.1067 146.2285
  A 35.31 35.31 0.0 0 0 633.7351 181.4768
  L 633.3850 382.0365
  A 35.31 35.31 0.0 0 0 668.6334 417.4081
  L 670.6133 417.4115
  A 35.31 35.31 0.0 0 0 705.9849 382.1632
  L 706.3350 181.6035"
/>
</g>
<path fill="#000000" d="
  M 313.01 0.00
  L 324.57 0.00
  Q 328.99 1.24 333.23 2.85
  C 354.94 11.09 363.16 30.50 363.13 52.33
  Q 362.80 265.01 363.19 498.71
  Q 363.21 511.54 361.74 523.97
  Q 361.01 530.12 359.08 535.66
  C 344.26 578.23 283.44 568.95 275.23 527.44
  Q 274.11 521.79 274.12 509.25
  Q 274.31 278.41 274.15 50.76
  Q 274.14 38.30 275.68 32.13
  C 280.36 13.30 294.72 4.39 313.01 0.00
  Z
  M 355.02 44.01
  A 35.84 35.84 0.0 0 0 319.18 8.17
  L 318.00 8.17
  A 35.84 35.84 0.0 0 0 282.16 44.01
  L 282.16 519.45
  A 35.84 35.84 0.0 0 0 318.00 555.29
  L 319.18 555.29
  A 35.84 35.84 0.0 0 0 355.02 519.45
  L 355.02 44.01
  Z"
/>
<path fill="#000000" d="
  M 781.83 0.00
  L 792.77 0.00
  C 807.78 4.12 819.49 10.81 826.12 25.27
  C 830.41 34.60 831.28 44.40 831.28 54.71
  Q 831.21 283.92 831.23 511.44
  C 831.23 523.09 829.61 535.15 823.01 544.59
  Q 808.54 565.29 783.15 563.15
  Q 775.36 562.49 767.08 558.33
  C 751.36 550.42 742.93 535.06 742.94 517.10
  Q 742.98 283.84 742.90 49.98
  Q 742.90 37.77 744.45 31.63
  C 749.20 12.80 763.32 4.54 781.83 0.00
  Z
  M 823.35 43.79
  A 35.61 35.61 0.0 0 0 787.74 8.18
  L 786.60 8.18
  A 35.61 35.61 0.0 0 0 750.99 43.79
  L 750.99 519.65
  A 35.61 35.61 0.0 0 0 786.60 555.26
  L 787.74 555.26
  A 35.61 35.61 0.0 0 0 823.35 519.65
  L 823.35 43.79
  Z"
/>
<rect fill="#B0E444" x="282.16" y="8.17" width="72.86" height="547.12" rx="35.84"/>
<rect fill="#B0E444" x="750.99" y="8.18" width="72.36" height="547.08" rx="35.61"/>
<path fill="#000000" d="
  M 949.39 276.58
  Q 949.28 276.67 949.27 276.82
  Q 947.66 323.20 948.64 370.04
  Q 948.93 383.76 947.56 389.92
  Q 943.20 409.48 926.50 419.61
  C 909.87 429.69 888.51 426.42 874.19 414.08
  C 867.57 408.38 863.36 400.67 861.78 391.78
  Q 860.33 383.58 860.23 375.55
  Q 858.92 270.65 861.05 163.01
  Q 861.31 149.89 863.45 135.65
  C 869.38 96.32 897.95 62.71 933.49 46.54
  C 961.94 33.58 995.99 32.25 1025.27 43.07
  C 1089.88 66.96 1121.98 142.21 1095.18 205.16
  C 1084.80 229.55 1065.60 251.98 1041.82 265.26
  C 1014.21 280.67 981.86 282.61 950.81 276.20
  A 1.71 1.64 -58.9 0 0 949.39 276.58
  Z
  M 1028.52 53.66
  C 977.97 30.76 918.81 49.25 888.05 94.99
  Q 873.11 117.21 870.43 144.67
  Q 868.46 164.83 868.31 186.00
  Q 867.55 289.99 868.10 379.50
  Q 868.14 385.27 869.39 390.97
  C 872.78 406.34 887.57 416.82 902.70 417.46
  C 917.03 418.08 930.04 410.60 936.30 397.67
  Q 938.61 392.88 939.65 386.17
  Q 940.79 378.77 940.79 372.94
  Q 940.75 321.58 940.86 273.80
  C 940.87 268.99 946.10 266.98 950.24 267.79
  Q 974.72 272.60 996.95 270.46
  Q 1037.04 266.59 1064.22 237.71
  C 1093.48 206.62 1104.78 163.95 1091.71 123.37
  C 1081.58 91.92 1058.55 67.26 1028.52 53.66
  Z"
/>
<path fill="#000000" d="
  M 155.52 275.99
  C 151.07 276.59 146.18 277.89 141.56 278.41
  Q 86.93 284.56 46.23 252.37
  Q 23.88 234.70 11.59 207.90
  C -4.74 172.29 -1.51 130.80 17.05 96.75
  C 32.55 68.33 61.93 47.80 92.85 40.07
  Q 121.11 33.00 150.46 39.46
  C 199.55 50.26 238.44 90.96 243.38 141.89
  Q 244.79 156.42 244.94 165.35
  Q 246.38 251.30 245.91 362.22
  C 245.86 374.04 245.56 385.19 242.33 395.91
  C 236.81 414.25 219.76 425.76 200.94 425.50
  C 176.66 425.16 159.02 405.73 157.38 382.17
  Q 157.16 378.96 157.43 364.80
  Q 158.27 321.24 156.60 276.90
  A 0.95 0.95 0.0 0 0 155.52 275.99
  Z
  M 233.20 398.17
  Q 235.01 394.59 235.73 390.85
  Q 237.93 379.35 237.94 367.75
  Q 237.98 272.57 237.35 177.25
  Q 237.26 163.66 235.67 146.26
  Q 233.40 121.44 221.69 101.13
  Q 204.27 70.93 173.41 55.77
  Q 142.60 40.64 108.60 44.60
  Q 69.15 49.18 41.13 78.90
  Q 18.54 102.85 11.53 134.93
  Q 0.32 186.26 33.07 228.37
  C 52.74 253.65 79.87 269.58 112.22 271.78
  Q 133.92 273.26 156.43 268.09
  C 160.54 267.14 165.14 269.10 165.14 273.70
  Q 165.21 330.33 165.14 379.55
  Q 165.10 402.68 184.78 413.17
  Q 193.76 417.97 203.73 417.54
  Q 223.85 416.66 233.20 398.17
  Z"
/>
<path fill="#B0E444" d="
  M 233.20 398.17
  Q 223.85 416.66 203.73 417.54
  Q 193.76 417.97 184.78 413.17
  Q 165.10 402.68 165.14 379.55
  Q 165.21 330.33 165.14 273.70
  C 165.14 269.10 160.54 267.14 156.43 268.09
  Q 133.92 273.26 112.22 271.78
  C 79.87 269.58 52.74 253.65 33.07 228.37
  Q 0.32 186.26 11.53 134.93
  Q 18.54 102.85 41.13 78.90
  Q 69.15 49.18 108.60 44.60
  Q 142.60 40.64 173.41 55.77
  Q 204.27 70.93 221.69 101.13
  Q 233.40 121.44 235.67 146.26
  Q 237.26 163.66 237.35 177.25
  Q 237.98 272.57 237.94 367.75
  Q 237.93 379.35 235.73 390.85
  Q 235.01 394.59 233.20 398.17
  Z
  M 172.95 158.01
  A 49.91 49.91 0.0 0 0 123.04 108.10
  A 49.91 49.91 0.0 0 0 73.13 158.01
  A 49.91 49.91 0.0 0 0 123.04 207.92
  A 49.91 49.91 0.0 0 0 172.95 158.01
  Z"
/>
<path fill="#B0E444" d="
  M 1028.52 53.66
  C 1058.55 67.26 1081.58 91.92 1091.71 123.37
  C 1104.78 163.95 1093.48 206.62 1064.22 237.71
  Q 1037.04 266.59 996.95 270.46
  Q 974.72 272.60 950.24 267.79
  C 946.10 266.98 940.87 268.99 940.86 273.80
  Q 940.75 321.58 940.79 372.94
  Q 940.79 378.77 939.65 386.17
  Q 938.61 392.88 936.30 397.67
  C 930.04 410.60 917.03 418.08 902.70 417.46
  C 887.57 416.82 872.78 406.34 869.39 390.97
  Q 868.14 385.27 868.10 379.50
  Q 867.55 289.99 868.31 186.00
  Q 868.46 164.83 870.43 144.67
  Q 873.11 117.21 888.05 94.99
  C 918.81 49.25 977.97 30.76 1028.52 53.66
  Z
  M 1032.95 158.01
  A 49.91 49.91 0.0 0 0 983.04 108.10
  A 49.91 49.91 0.0 0 0 933.13 158.01
  A 49.91 49.91 0.0 0 0 983.04 207.92
  A 49.91 49.91 0.0 0 0 1032.95 158.01
  Z"
/>
<path fill="#000000" d="
  M 597.5679 458.2025
  A 43.27 43.27 0.0 0 1 554.3735 501.5479
  L 552.3935 501.5514
  A 43.27 43.27 0.0 0 1 509.0480 458.3570
  L 508.4321 105.4575
  A 43.27 43.27 0.0 0 1 551.6265 62.1121
  L 553.6065 62.1086
  A 43.27 43.27 0.0 0 1 596.9520 105.3030
  L 597.5679 458.2025
  Z
  M 589.16 105.39
  A 35.42 35.42 0.0 0 0 553.74 69.97
  L 552.28 69.97
  A 35.42 35.42 0.0 0 0 516.86 105.39
  L 516.86 458.37
  A 35.42 35.42 0.0 0 0 552.28 493.79
  L 553.74 493.79
  A 35.42 35.42 0.0 0 0 589.16 458.37
  L 589.16 105.39
  Z"
/>
<rect fill="#B0E444" x="516.86" y="69.97" width="72.30" height="423.82" rx="35.42"/>
<path fill="#000000" d="
  M 172.95 158.01
  A 49.91 49.91 0.0 0 1 123.04 207.92
  A 49.91 49.91 0.0 0 1 73.13 158.01
  A 49.91 49.91 0.0 0 1 123.04 108.10
  A 49.91 49.91 0.0 0 1 172.95 158.01
  Z
  M 164.93 158.00
  A 41.89 41.89 0.0 0 0 123.04 116.11
  A 41.89 41.89 0.0 0 0 81.15 158.00
  A 41.89 41.89 0.0 0 0 123.04 199.89
  A 41.89 41.89 0.0 0 0 164.93 158.00
  Z"
/>
<path fill="#000000" d="
  M 1032.95 158.01
  A 49.91 49.91 0.0 0 1 983.04 207.92
  A 49.91 49.91 0.0 0 1 933.13 158.01
  A 49.91 49.91 0.0 0 1 983.04 108.10
  A 49.91 49.91 0.0 0 1 1032.95 158.01
  Z
  M 1024.93 158.00
  A 41.89 41.89 0.0 0 0 983.04 116.11
  A 41.89 41.89 0.0 0 0 941.15 158.00
  A 41.89 41.89 0.0 0 0 983.04 199.89
  A 41.89 41.89 0.0 0 0 1024.93 158.00
  Z"
/>
<path fill="#000000" d="
  M 480.0756 382.4426
  A 42.80 42.80 0.0 0 1 437.3504 425.3173
  L 434.4504 425.3223
  A 42.80 42.80 0.0 0 1 391.5758 382.5971
  L 391.2244 181.2774
  A 42.80 42.80 0.0 0 1 433.9496 138.4027
  L 436.8496 138.3977
  A 42.80 42.80 0.0 0 1 479.7242 181.1229
  L 480.0756 382.4426
  Z
  M 471.8251 181.5566
  A 35.39 35.39 0.0 0 0 436.3733 146.2285
  L 434.3734 146.2320
  A 35.39 35.39 0.0 0 0 399.0452 181.6837
  L 399.3949 382.0834
  A 35.39 35.39 0.0 0 0 434.8467 417.4115
  L 436.8466 417.4080
  A 35.39 35.39 0.0 0 0 472.1748 381.9563
  L 471.8251 181.5566
  Z"
/>
<path fill="#000000" d="
  M 713.9542 382.6470
  A 42.74 42.74 0.0 0 1 671.1396 425.3123
  L 668.2596 425.3073
  A 42.74 42.74 0.0 0 1 625.5943 382.4927
  L 625.9458 181.0730
  A 42.74 42.74 0.0 0 1 668.7604 138.4077
  L 671.6404 138.4127
  A 42.74 42.74 0.0 0 1 714.3057 181.2273
  L 713.9542 382.6470
  Z
  M 706.3350 181.6035
  A 35.31 35.31 0.0 0 0 671.0866 146.2319
  L 669.1067 146.2285
  A 35.31 35.31 0.0 0 0 633.7351 181.4768
  L 633.3850 382.0365
  A 35.31 35.31 0.0 0 0 668.6334 417.4081
  L 670.6133 417.4115
  A 35.31 35.31 0.0 0 0 705.9849 382.1632
  L 706.3350 181.6035
  Z"
/>
<rect fill="#B0E444" x="-36.39" y="-135.59" transform="translate(435.61,281.82) rotate(-0.1)" width="72.78" height="271.18" rx="35.39"/>
<rect fill="#B0E444" x="-36.30" y="-135.59" transform="translate(669.86,281.82) rotate(0.1)" width="72.60" height="271.18" rx="35.31"/>
</svg>
